<?xml version="1.0" encoding="utf-8"?>
<!-- Generator: Adobe Illustrator 23.0.1, SVG Export Plug-In . SVG Version: 6.00 Build 0)  -->
<svg version="1.1" id="Layer_1" xmlns="http://www.w3.org/2000/svg" xmlns:xlink="http://www.w3.org/1999/xlink" x="0px" y="0px"
	 viewBox="0 0 1920 1080" style="enable-background:new 0 0 1920 1080;" xml:space="preserve">
<style type="text/css">
	.st0{display:none;fill:#343A41;}
	.st1{display:none;fill:#111315;}
	.st2{fill:#111315;}
	.st3{display:none;fill:none;stroke:#FFFFFF;stroke-width:3;stroke-miterlimit:10;}
	.st4{display:none;fill:#FFFFFF;}
	.st5{fill:#FFFFFF;}
	.st6{fill:#F8FFFC;}
	.st7{fill:#7A7A7A;}
</style>
<rect x="-319.03" y="290.2" class="st0" width="210.81" height="174.32"/>
<rect x="-319.03" y="541.55" class="st1" width="210.81" height="174.32"/>
<rect x="0" class="st2" width="1920" height="1080"/>
<path class="st3" d="M-246.17,1230.2c1.11-2.85,3.63-5.09,6.63-5.73c3.96-0.86,7.01,1.43,8.07,2.23c4.77,3.58,4.59,9.47,4.49,11.73
	c-0.7,14.87-4.85,30.1-6.01,36.94c-1.35,7.98-1.13,19.46,6.69,33.7"/>
<path class="st3" d="M-226.96,1232.24c-0.13,2.41-0.27,4.83-0.4,7.24c-1.63,9.56-5.4,24.57-15.04,40.59
	c-10.96,18.22-24.47,29.35-32.77,35.2l0,0"/>
<path class="st4" d="M284.7,1470.55c-10.07,0-19-2.24-26.79-6.72c-7.79-4.48-13.89-10.72-18.31-18.72c-4.42-8-6.62-17.3-6.62-27.92
	c0-10.76,2.17-20.2,6.52-28.34c4.34-8.14,10.41-14.48,18.2-19.03c7.79-4.55,16.86-6.83,27.2-6.83c10.07,0,18.82,2.24,26.27,6.72
	c7.45,4.48,13.24,10.45,17.38,17.89c4.14,7.45,6.21,15.65,6.21,24.62c0,1.38-0.04,2.86-0.1,4.45c-0.07,1.59-0.17,3.35-0.31,5.28
	H254.5c0.69,9.93,3.96,17.48,9.83,22.65c5.86,5.17,12.65,7.76,20.38,7.76c6.21,0,11.41-1.41,15.62-4.24
	c4.21-2.83,7.34-6.65,9.41-11.48h21.93c-2.76,9.65-8.24,17.72-16.44,24.2C307.01,1467.31,296.83,1470.55,284.7,1470.55z
	 M284.7,1380.99c-7.31,0-13.79,2.17-19.44,6.52c-5.66,4.34-9.1,10.86-10.34,19.55h57.92c-0.41-8-3.24-14.34-8.48-19.03
	C299.11,1383.33,292.56,1380.99,284.7,1380.99z"/>
<path class="st4" d="M291.08,1452.96c0.3-1.76,0.81-4.14,1.4-6.89c1.73-8.08,4.11-19.14,4.63-30.24c0.04-0.81,0.1-2.24-0.11-3.92
	l-0.45-2.29c-0.64-2.34-1.93-4.85-4.52-6.8c-1.15-0.87-4.66-3.5-9.29-2.5c-3.44,0.75-6.4,3.3-7.71,6.66l2.79,1.09
	c0.95-2.43,3.08-4.28,5.55-4.81c3.29-0.71,5.88,1.23,6.85,1.96c2.53,1.9,3.45,4.62,3.77,6.89l-0.25,4.53
	c-2.43,14.22-7.42,27.67-14.83,39.98c-8.17,13.57-19.35,25.58-32.35,34.75l1.73,2.45c13.33-9.4,24.81-21.73,33.19-35.65
	c3.82-6.35,7.02-13.01,9.57-19.9c-0.51,2.57-1.03,4.98-1.5,7.17c-0.6,2.78-1.11,5.19-1.42,7.02c-1.9,11.27,0.4,22.93,6.86,34.67
	l2.63-1.45C291.49,1474.56,289.29,1463.54,291.08,1452.96z"/>
<g>
	<path class="st5" d="M234.62,616.26c-16.34,0-30.66-2.87-42.97-8.59c-12.31-5.73-21.91-13.9-28.81-24.51
		c-6.9-10.61-10.45-23.24-10.66-37.88h35.65c0.21,11.89,4.35,21.96,12.41,30.24c8.06,8.28,19.42,12.41,34.06,12.41
		c12.94,0,23.08-3.13,30.4-9.39c7.32-6.26,10.98-14.27,10.98-24.03c0-7.85-1.75-14.21-5.25-19.1c-3.5-4.88-8.28-8.91-14.32-12.09
		c-6.05-3.18-13-6.05-20.85-8.59c-7.85-2.55-16.13-5.3-24.83-8.28c-17.19-5.73-30.08-13.15-38.67-22.28
		c-8.59-9.12-12.89-21.11-12.89-35.97c-0.21-12.52,2.71-23.44,8.75-32.78c6.05-9.34,14.53-16.6,25.46-21.8
		c10.93-5.2,23.71-7.8,38.35-7.8c14.43,0,27.1,2.66,38.04,7.96c10.93,5.31,19.47,12.68,25.62,22.12c6.15,9.44,9.34,20.43,9.55,32.94
		h-35.65c0-5.73-1.49-11.19-4.46-16.39c-2.97-5.2-7.32-9.49-13.05-12.89c-5.73-3.39-12.73-5.09-21.01-5.09
		c-10.61-0.21-19.36,2.44-26.26,7.96c-6.9,5.52-10.34,13.16-10.34,22.92c0,8.7,2.55,15.39,7.64,20.05
		c5.09,4.67,12.09,8.54,21.01,11.62c8.91,3.08,19.1,6.63,30.56,10.66c11.03,3.61,20.9,7.96,29.6,13.05
		c8.7,5.09,15.65,11.78,20.85,20.05c5.2,8.28,7.8,18.78,7.8,31.51c0,11.25-2.86,21.7-8.59,31.35c-5.73,9.66-14.32,17.51-25.78,23.55
		C265.49,613.24,251.38,616.26,234.62,616.26z"/>
	<path class="st5" d="M413.18,612.44c-15.49,0-27.8-3.76-36.92-11.3c-9.13-7.53-13.69-20.95-13.69-40.26V482.9h-27.06v-28.33h27.06
		l4.14-40.1h29.6v40.1h44.56v28.33h-44.56v77.98c0,8.7,1.85,14.7,5.57,17.98c3.71,3.29,10.13,4.93,19.26,4.93h18.14v28.65H413.18z"
		/>
	<path class="st5" d="M475.56,612.44V454.57h30.24l2.86,29.92c5.51-10.39,13.21-18.62,23.08-24.67c9.87-6.05,21.8-9.07,35.81-9.07
		v35.33h-9.23c-9.34,0-17.67,1.54-24.99,4.62c-7.32,3.08-13.16,8.28-17.51,15.6c-4.35,7.32-6.52,17.46-6.52,30.4v75.75H475.56z"/>
	<path class="st5" d="M704.42,564.06c-3.19,7.43-8.02,13.33-14.49,17.66c-4.03,2.71-8.66,4.59-13.88,5.62
		c-0.12,0.66-0.25,1.28-0.34,1.86c-1.46,8.66-1.18,17.51,0.82,26.48c14.06-1.55,26.17-6.35,36.33-14.37
		c12.62-9.97,21.05-22.39,25.3-37.25H704.42z M671.16,588.43c0.02-0.14,0.05-0.28,0.08-0.42c-0.45,0.05-0.91,0.08-1.37,0.11
		c-1.28,0.09-2.59,0.14-3.91,0.14c-1.57,3.03-3.26,6.02-5.03,8.96c-3.65,6.06-7.66,11.91-12.03,17.53c5.42,1.02,11.08,1.52,17,1.52
		c1.54,0,3.05-0.03,4.54-0.12c0.48,0,0.95-0.03,1.43-0.06C669.87,606.74,669.63,597.49,671.16,588.43z M733.37,488.63
		c-6.37-11.46-15.28-20.63-26.74-27.53c-11.45-6.89-24.93-10.36-40.42-10.36c-15.91,0-29.87,3.51-41.85,10.51
		c-11.99,7-21.33,16.77-28,29.28c-6.68,12.53-10.03,27.05-10.03,43.61c0,16.34,3.4,30.67,10.19,42.96
		c6.79,12.31,16.19,21.93,28.17,28.82c5.4,3.09,11.14,5.49,17.25,7.2c0.65,0.2,1.31,0.37,1.97,0.54c4.77-6,9.16-12.29,13.08-18.82
		c1.35-2.25,2.66-4.54,3.91-6.83c-0.68-0.06-1.35-0.15-2.03-0.25c-9.03-1.29-17.13-5.11-24.31-11.45
		c-9.02-7.96-14.06-19.57-15.11-34.85h58.78c0.58-2.71,1.12-5.42,1.58-8.16l0.38-6.95c-0.34-2.49-1.15-5.34-3.02-7.82h-57.1
		c1.91-13.36,7.22-23.39,15.91-30.07c8.71-6.69,18.68-10.03,29.93-10.03c12.09,0,22.17,3.62,30.24,10.82
		c8.06,7.22,12.42,16.99,13.05,29.28H682.6c0.68,1.32,1.17,2.66,1.52,3.97l0.71,3.52c0.32,2.59,0.22,4.79,0.15,6.03
		c-0.15,3.14-0.38,6.29-0.71,9.4h58.01c0.22-2.97,0.37-5.68,0.48-8.12c0.11-2.43,0.17-4.71,0.17-6.83
		C742.93,512.71,739.74,500.09,733.37,488.63z"/>
	<path class="st5" d="M831.41,616.26c-13.37,0-24.4-2.23-33.1-6.68c-8.7-4.46-15.17-10.34-19.42-17.67
		c-4.25-7.32-6.37-15.33-6.37-24.03c0-15.28,5.94-27.37,17.82-36.28c11.88-8.91,28.85-13.37,50.93-13.37h41.38v-2.87
		c0-12.3-3.34-21.53-10.03-27.69c-6.68-6.15-15.33-9.23-25.94-9.23c-9.34,0-17.46,2.28-24.35,6.84c-6.9,4.57-11.09,11.3-12.57,20.21
		h-33.74c1.06-11.46,4.93-21.27,11.62-29.44c6.68-8.17,15.17-14.43,25.46-18.78c10.29-4.35,21.59-6.53,33.9-6.53
		c22.07,0,39.15,5.79,51.24,17.35c12.09,11.57,18.14,27.32,18.14,47.27v97.08h-29.28l-2.86-27.06c-4.46,8.7-10.93,16.02-19.42,21.96
		C856.34,613.29,845.2,616.26,831.41,616.26z M838.09,588.89c9.12,0,16.81-2.17,23.08-6.52c6.26-4.35,11.14-10.13,14.64-17.35
		c3.5-7.21,5.67-15.17,6.52-23.87h-37.56c-13.37,0-22.87,2.34-28.49,7c-5.62,4.67-8.43,10.5-8.43,17.51c0,7.22,2.7,12.89,8.12,17.03
		C821.38,586.82,828.75,588.89,838.09,588.89z"/>
	<path class="st5" d="M955.85,612.44V454.57h29.92l2.86,22.28c5.09-8.06,11.83-14.43,20.21-19.1c8.38-4.66,18.09-7,29.12-7
		c25.04,0,42.44,9.87,52.2,29.6c5.73-9.12,13.42-16.34,23.08-21.64c9.65-5.3,20.1-7.96,31.35-7.96c19.73,0,35.22,5.94,46.47,17.82
		c11.25,11.89,16.87,29.6,16.87,53.15v90.71h-33.74v-87.21c0-30.56-11.67-45.83-35.01-45.83c-11.89,0-21.59,4.46-29.12,13.37
		c-7.53,8.91-11.3,21.64-11.3,38.2v81.48h-33.74v-87.21c0-30.56-11.78-45.83-35.33-45.83c-11.67,0-21.28,4.46-28.81,13.37
		c-7.53,8.91-11.3,21.64-11.3,38.2v81.48H955.85z"/>
	<path class="st5" d="M1248.67,612.44v-222.8h84.03c23.13,0,40.63,5.41,52.52,16.23c11.88,10.82,17.82,24.4,17.82,40.74
		c0,14.22-3.82,25.52-11.46,33.9c-7.64,8.38-16.87,14.06-27.69,17.03c8.49,1.7,16.07,5.09,22.76,10.18
		c6.68,5.09,11.94,11.46,15.76,19.1c3.82,7.64,5.73,15.91,5.73,24.83c0,11.46-2.81,21.8-8.43,31.03
		c-5.62,9.23-13.85,16.5-24.67,21.8c-10.82,5.31-24.09,7.96-39.79,7.96H1248.67z M1282.41,485.13h46.15
		c12.94,0,22.81-3.02,29.6-9.07c6.79-6.05,10.18-14.37,10.18-24.99c0-10.39-3.34-18.67-10.03-24.83c-6.68-6.15-16.82-9.23-30.4-9.23
		h-45.52V485.13z M1282.41,584.75h48.38c13.58,0,24.14-3.18,31.67-9.55c7.53-6.37,11.3-15.28,11.3-26.74
		c0-11.46-3.93-20.53-11.78-27.21c-7.85-6.68-18.46-10.03-31.83-10.03h-47.74V584.75z"/>
	<path class="st5" d="M1497.25,616.26c-13.37,0-24.4-2.23-33.1-6.68c-8.7-4.46-15.17-10.34-19.42-17.67
		c-4.25-7.32-6.37-15.33-6.37-24.03c0-15.28,5.94-27.37,17.82-36.28c11.88-8.91,28.85-13.37,50.93-13.37h41.38v-2.87
		c0-12.3-3.34-21.53-10.03-27.69c-6.68-6.15-15.33-9.23-25.94-9.23c-9.34,0-17.46,2.28-24.35,6.84c-6.9,4.57-11.09,11.3-12.57,20.21
		h-33.74c1.06-11.46,4.93-21.27,11.62-29.44c6.68-8.17,15.17-14.43,25.46-18.78c10.29-4.35,21.59-6.53,33.9-6.53
		c22.07,0,39.15,5.79,51.24,17.35c12.09,11.57,18.14,27.32,18.14,47.27v97.08h-29.28l-2.86-27.06c-4.46,8.7-10.93,16.02-19.42,21.96
		C1522.19,613.29,1511.05,616.26,1497.25,616.26z M1503.94,588.89c9.12,0,16.81-2.17,23.08-6.52c6.26-4.35,11.14-10.13,14.64-17.35
		c3.5-7.21,5.67-15.17,6.52-23.87h-37.56c-13.37,0-22.87,2.34-28.49,7c-5.62,4.67-8.43,10.5-8.43,17.51c0,7.22,2.7,12.89,8.12,17.03
		C1487.23,586.82,1494.6,588.89,1503.94,588.89z"/>
	<polygon class="st5" points="1736.93,454.57 1686.32,571.38 1637.94,454.57 1601.34,454.57 1668.2,609.8 1635.07,682.47 
		1670.72,682.47 1772.57,454.57 	"/>
	<g>
		<g>
			<path class="st6" d="M541.64,694.16c11.02,10.2,27.85,9.92,37.59-0.61l43.8-47.54l-9.44-8.74l-30.77,32.8
				c-1.38-4.64-3.98-9.03-7.85-12.61c-7.65-7.08-18.1-9.1-27.04-6.16l-14.54,16.36C531.15,676.82,533.98,687.08,541.64,694.16z"/>
			<path class="st7" d="M554.79,669.81l10.71,9.91c0.39,0.36,0.41,0.97,0.05,1.35l-1.67,1.8c-0.36,0.39-0.97,0.41-1.35,0.05
				l-10.71-9.91c-0.39-0.36-0.41-0.97-0.05-1.35l1.67-1.8C553.8,669.47,554.41,669.45,554.79,669.81z"/>
		</g>
		<path class="st7" d="M589.18,663.36l-6.36,6.72c-0.41-1.38-0.94-2.73-1.57-4.05c2.32,5.84,3.82,10.84,2.53,17.1
			c-0.76,3.7-3.26,9.03-5.95,11.78c0.47-0.44,0.95-0.87,1.39-1.36l18.4-19.9C594.77,670.26,591.94,666.84,589.18,663.36z"/>
	</g>
	<g>
		<g>
			<path class="st6" d="M725.82,714.69c-14.37,4.37-29.39-3.22-33.56-16.95l-18.68-61.88l12.31-3.74l13.38,42.93
				c3.26-3.58,7.53-6.39,12.56-7.92c9.97-3.03,20.26-0.29,27.02,6.26l5.94,21.07C742.82,703.65,735.79,711.65,725.82,714.69z"/>
			<path class="st7" d="M724.6,687.03l-13.96,4.24c-0.5,0.15-0.79,0.69-0.64,1.19l0.71,2.35c0.15,0.5,0.69,0.79,1.19,0.64
				l13.96-4.24c0.5-0.15,0.79-0.69,0.64-1.19l-0.71-2.35C725.64,687.17,725.11,686.88,724.6,687.03z"/>
		</g>
		<path class="st7" d="M696.47,666.23l2.8,8.82c0.97-1.06,2.04-2.05,3.18-2.96c-4.64,4.24-8.16,8.09-9.73,14.28
			c-0.93,3.66-1,9.55,0.21,13.2c-0.23-0.6-0.47-1.2-0.66-1.83l-7.88-25.93C688.43,670.01,692.47,668.16,696.47,666.23z"/>
	</g>
	<path class="st7" d="M683.61,532.07c-0.15,3.14-0.38,6.29-0.71,9.4h-6.06c0.16-0.62,0.3-1.28,0.45-1.95
		c0.19-0.92,0.31-1.64,0.39-2.11c0.62-3.77,0.93-5.65,1.01-7.18c0.12-2.25,0.25-4.8-0.82-7.78c-0.63-1.75-1.47-3.06-2.08-3.9h5.43
		c0.68,1.32,1.17,2.66,1.52,3.97l0.71,3.52C683.78,528.62,683.67,530.82,683.61,532.07z"/>
	<path class="st5" d="M684.98,532.07c-0.15,3.14-0.38,6.29-0.71,9.4h-6.06c0.15-0.64,0.3-1.29,0.44-1.97c0,0,0.21-1.03,0.4-2.09
		c0.5-2.88,0.92-5.27,0.97-8.11c0.04-2.51,0.07-4.45-0.77-6.85c-0.61-1.75-1.45-3.06-2.08-3.9h5.43c0.68,1.32,1.17,2.66,1.52,3.97
		l0.71,3.52C685.15,528.62,685.04,530.82,684.98,532.07z"/>
	<path class="st5" d="M651.21,518.54l-0.2-0.08c2.02-5.17,6.57-9.09,11.86-10.25c7.12-1.54,12.53,2.51,14.29,3.85
		c2.54,1.89,4.26,4.15,5.43,6.48h-5.43c-0.74-1-1.66-1.95-2.77-2.79c-1.51-1.12-5.48-4.12-10.54-3.03
		c-3.25,0.71-6.09,2.88-7.77,5.82c-0.29,0.51-0.55,1.05-0.77,1.6L651.21,518.54z"/>
	<path class="st7" d="M660.89,588.01c-1.25,2.29-2.55,4.59-3.91,6.83c-3.92,6.52-8.31,12.82-13.08,18.82
		c-0.66-0.17-1.32-0.34-1.97-0.54c4.99-6.28,9.54-12.85,13.63-19.66c1.12-1.88,2.23-3.77,3.29-5.69
		C659.53,587.86,660.21,587.95,660.89,588.01z"/>
	<path class="st5" d="M643.9,613.66c1.65,0.4,3.31,0.77,5,1.08c-11.06,14.26-24.31,26.96-39.04,37.34l-2.66-3.77
		C620.94,638.62,633.37,626.85,643.9,613.66z"/>
	<path class="st7" d="M671.87,616.08c-0.48,0.03-0.95,0.06-1.43,0.06c-1.94-9.36-2.19-18.62-0.63-27.7
		c0.02-0.11,0.03-0.22,0.06-0.32c0.46-0.03,0.92-0.06,1.37-0.11c-0.03,0.14-0.06,0.28-0.08,0.42
		C669.63,597.49,669.87,606.74,671.87,616.08z"/>
	<path class="st5" d="M673.35,577.63c0.72-3.37,1.52-7.08,2.31-11.03c-2.74,7.42-5.97,14.65-9.69,21.67h-0.06
		c-1.71,0-3.37-0.08-5.02-0.25c7.96-14.65,13.76-30.24,17.33-46.55h6.06c-1.4,13.79-4.23,26.99-6.42,37.13
		c-0.71,3.32-1.35,6.29-1.82,8.74c-1.55,0.31-3.15,0.52-4.8,0.68C671.7,585.26,672.47,581.71,673.35,577.63z"/>
	<path class="st5" d="M685.75,639.55l-4.05,2.23c-4.74-8.62-8.02-17.2-9.83-25.7c1.57-0.09,3.12-0.22,4.65-0.4
		C678.26,623.56,681.33,631.53,685.75,639.55z"/>
	<path class="st5" d="M665.96,588.26c-1.57,3.03-3.26,6.02-5.03,8.96c-3.65,6.06-7.66,11.91-12.03,17.53
		c-1.69-0.31-3.35-0.68-5-1.08c4.77-6,9.16-12.29,13.08-18.82c1.35-2.25,2.66-4.54,3.91-6.83c1.65,0.17,3.31,0.25,5.02,0.25H665.96z
		"/>
	<path class="st5" d="M676.52,615.68c-1.52,0.18-3.08,0.31-4.65,0.4c-2-9.34-2.25-18.59-0.71-27.65c0.02-0.14,0.05-0.28,0.08-0.42
		c1.65-0.15,3.25-0.37,4.8-0.68c-0.12,0.66-0.25,1.28-0.34,1.86C674.24,597.86,674.52,606.71,676.52,615.68z"/>
</g>
</svg>
